<?xml version="1.0" encoding="UTF-8"?>
<svg width="18px" height="18px" viewBox="0 0 18 18" version="1.1" xmlns="http://www.w3.org/2000/svg" xmlns:xlink="http://www.w3.org/1999/xlink">
    <!-- Generator: Sketch 59 (86127) - https://sketch.com -->
    <title>cog-box</title>
    <desc>Created with Sketch.</desc>
    <g id="Page-1" stroke="none" stroke-width="1" fill="none" fill-rule="evenodd">
        <g id="cog-box" transform="translate(-3.000000, -3.000000)">
            <g id="Frame_-_24px">
                <rect id="Rectangle" x="0" y="0" width="24" height="24"></rect>
            </g>
            <g id="Filled_Icons" transform="translate(3.000000, 3.000000)" fill="#246EB0" fill-rule="nonzero">
                <g id="Group">
                    <circle id="Oval" cx="9" cy="9" r="2.4"></circle>
                    <path d="M16,0 L2,0 C0.895,0 0,0.895 0,2 L0,16 C0,17.104 0.895,18 2,18 L16,18 C17.104,18 18,17.104 18,16 L18,2 C18,0.895 17.104,0 16,0 Z M15,10.09 L13.21,10.09 C13.112,10.464 12.966,10.815 12.779,11.143 L13.909,12.273 L12.273,13.908 L11.142,12.778 C10.815,12.966 10.464,13.112 10.089,13.208 L10.089,15 L7.908,15 L7.908,13.209 C7.534,13.113 7.183,12.967 6.856,12.779 L5.725,13.909 L4.09,12.274 L5.221,11.144 C5.034,10.815 4.888,10.465 4.79,10.091 L3,10.091 L3,7.909 L4.79,7.909 C4.888,7.536 5.034,7.186 5.221,6.856 L4.09,5.726 L5.727,4.09 L6.858,5.22 C7.185,5.032 7.536,4.887 7.91,4.79 L7.91,2.999 L10.091,2.999 L10.091,4.79 C10.466,4.887 10.817,5.032 11.144,5.22 L12.275,4.09 L13.911,5.726 L12.781,6.856 C12.968,7.186 13.114,7.535 13.212,7.909 L15,7.909 L15,10.09 Z" id="Shape"></path>
                </g>
            </g>
        </g>
    </g>
</svg>