<?xml version="1.0" encoding="UTF-8"?>
<svg width="16px" height="17px" viewBox="0 0 16 17" version="1.1" xmlns="http://www.w3.org/2000/svg" xmlns:xlink="http://www.w3.org/1999/xlink">
    <!-- Generator: Sketch 59 (86127) - https://sketch.com -->
    <title>user-female</title>
    <desc>Created with Sketch.</desc>
    <g id="Page-1" stroke="none" stroke-width="1" fill="none" fill-rule="evenodd">
        <g id="user-female" transform="translate(-0.845666, -0.845666)" fill="#246EB0" fill-rule="nonzero">
            <g id="Group" transform="translate(0.000000, 3.382664)">
                <circle id="Oval" cx="7.50951374" cy="3.38266385" r="3.38266385"></circle>
                <path d="M7.55179704,7.61099366 C3.56871036,7.65327696 0.786469345,9.76744186 0.845665962,12.7610994 L0.845665962,13.6067653 L14.3763214,13.4545455 L14.3763214,12.6088795 C14.3763214,9.62367865 11.5348837,7.61099366 7.55179704,7.61099366 Z" id="Path"></path>
            </g>
            <path d="M16.8456662,3.17124736 C16.8462288,1.93731568 15.882979,0.917757749 14.651004,0.848293253 C13.419029,0.778828757 12.3472741,1.68364363 12.2091247,2.90981753 C12.0709752,4.13599143 12.9145317,5.25659885 14.1310782,5.46300211 L14.1310782,6.66384778 L12.9725159,6.66384778 L12.9725159,7.43340381 L14.1310782,7.43340381 L14.1310782,8.60042283 L14.9090909,8.60042283 L14.9090909,7.43340381 L16.0676533,7.43340381 L16.0676533,6.66384778 L14.9090909,6.66384778 L14.9090909,5.46300211 C16.0269879,5.27333629 16.8451488,4.30511973 16.8456662,3.17124736 Z M12.9724928,3.17124736 C12.9690964,2.54036781 13.3469507,1.969862 13.9291595,1.72685259 C14.5113683,1.48384318 15.1826887,1.6164317 15.6287945,2.06253746 C16.0749002,2.50864322 16.2074887,3.17996359 15.9644793,3.76217242 C15.7214699,4.34438125 15.1509641,4.72223554 14.5200846,4.71883908 C13.665386,4.71883908 12.9724928,4.02594596 12.9724928,3.17124736 Z" id="Shape"></path>
        </g>
    </g>
</svg>